# xmcd
#
# Track frame offsets:
#	150
#	42175
#	99934
#	126525
#	214252
#	243286
#
# Disc length: 3588 seconds
#
# Revision: 1
# Processed by: cddbd v1.5.2PL0 Copyright (c) Steve Scherf et al.
# Submitted via: audiograbber 1.83.01
#
DISCID=4f0e0206
DTITLE=Betts,Dickey&Great Southern - Live at Rockpalast 1978+2008 [CD 3)
DYEAR=2019
DGENRE=Blues
TTITLE0=One way out (Bonn 2008)
TTITLE1=Jessica (Bonn 2008)
TTITLE2=Having a good time (Bonn 2008)
TTITLE3=In memory of Elizabeth Reed (Bonn 2008)
TTITLE4=No one to run with (Bonn 2008)
TTITLE5=Ramblin' man (Bonn 2008)
EXTD=
EXTT0=
EXTT1=
EXTT2=
EXTT3=
EXTT4=
EXTT5=
PLAYORDER=
